<svg width="33" height="32" viewBox="0 0 33 32" fill="none" xmlns="http://www.w3.org/2000/svg">
<g id="Icon">
<path id="Vector" d="M22.4999 4.33313C24.0457 4.33774 25.5268 4.95385 26.6199 6.04689C27.7129 7.13993 28.329 8.62109 28.3336 10.1669V21.8331C28.329 23.3789 27.7129 24.8601 26.6199 25.9531C25.5268 27.0462 24.0457 27.6623 22.4999 27.6669H10.8336C9.28784 27.6623 7.80668 27.0462 6.71364 25.9531C5.6206 24.8601 5.00449 23.3789 4.99987 21.8331V10.1669C5.00449 8.62109 5.6206 7.13993 6.71364 6.04689C7.80668 4.95385 9.28784 4.33774 10.8336 4.33313H22.4999ZM22.4999 2H10.8336C6.34175 2 2.66675 5.675 2.66675 10.1669V21.8331C2.66675 26.325 6.34175 30 10.8336 30H22.4999C26.9917 30 30.6667 26.325 30.6667 21.8331V10.1669C30.6667 5.675 26.9917 2 22.4999 2Z" fill="#080510"/>
<path id="Vector_2" d="M24.25 10.1665C23.9039 10.1665 23.5655 10.0639 23.2778 9.87157C22.99 9.67928 22.7657 9.40597 22.6332 9.0862C22.5008 8.76643 22.4661 8.41456 22.5336 8.07509C22.6012 7.73563 22.7678 7.42381 23.0126 7.17907C23.2573 6.93433 23.5691 6.76765 23.9086 6.70013C24.2481 6.63261 24.5999 6.66726 24.9197 6.79972C25.2395 6.93217 25.5128 7.15647 25.7051 7.44426C25.8974 7.73204 26 8.07039 26 8.4165C26.0005 8.64645 25.9556 8.87424 25.8678 9.08678C25.78 9.29932 25.6511 9.49244 25.4885 9.65504C25.3259 9.81764 25.1328 9.94653 24.9203 10.0343C24.7077 10.1221 24.48 10.167 24.25 10.1665Z" fill="#080510"/>
<path id="Vector_3" d="M16.6667 11.3331C17.5898 11.3331 18.4921 11.6068 19.2595 12.1196C20.027 12.6324 20.6251 13.3613 20.9784 14.2141C21.3316 15.0668 21.424 16.0052 21.2439 16.9105C21.0639 17.8157 20.6194 18.6473 19.9667 19.3C19.314 19.9527 18.4825 20.3971 17.5772 20.5772C16.6719 20.7573 15.7336 20.6649 14.8808 20.3116C14.028 19.9584 13.2992 19.3602 12.7864 18.5928C12.2736 17.8253 11.9999 16.923 11.9999 16C12.0012 14.7627 12.4933 13.5764 13.3682 12.7015C14.2431 11.8266 15.4294 11.3344 16.6667 11.3331ZM16.6667 9C15.2823 9 13.9289 9.41054 12.7778 10.1797C11.6266 10.9489 10.7294 12.0421 10.1996 13.3212C9.66978 14.6003 9.53116 16.0078 9.80125 17.3656C10.0714 18.7235 10.738 19.9708 11.717 20.9497C12.696 21.9287 13.9432 22.5954 15.3011 22.8655C16.659 23.1356 18.0664 22.997 19.3455 22.4672C20.6246 21.9373 21.7179 21.0401 22.487 19.889C23.2562 18.7378 23.6667 17.3845 23.6667 16C23.6667 14.1435 22.9292 12.363 21.6165 11.0503C20.3037 9.7375 18.5233 9 16.6667 9Z" fill="#080510"/>
</g>
</svg>
