<svg width="33" height="32" viewBox="0 0 33 32" fill="none" xmlns="http://www.w3.org/2000/svg">
<g id="Icon">
<path id="Vector" d="M31.3333 6.84376C30.2079 7.33273 29.0172 7.65487 27.7989 7.80001C29.0793 7.05025 30.0422 5.85911 30.507 4.45001C29.2964 5.15788 27.9742 5.65455 26.597 5.91876C26.0171 5.31097 25.3196 4.82745 24.547 4.4976C23.7743 4.16775 22.9427 3.99846 22.1026 4.00001C18.7014 4.00001 15.9489 6.71251 15.9489 10.0563C15.9465 10.5214 15.9998 10.9851 16.1076 11.4375C13.6687 11.3232 11.2805 10.701 9.09574 9.6108C6.91103 8.52059 4.97793 6.98636 3.42013 5.10626C2.87361 6.02759 2.58458 7.07879 2.58325 8.15001C2.58325 10.25 3.67888 12.1063 5.33325 13.1938C4.35308 13.1705 3.393 12.9111 2.5345 12.4375V12.5125C2.5345 15.45 4.6595 17.8938 7.472 18.45C6.94312 18.591 6.39811 18.6624 5.85075 18.6625C5.46236 18.6632 5.07486 18.6255 4.69388 18.55C5.47575 20.9563 7.75138 22.7063 10.447 22.7563C8.25661 24.4443 5.56739 25.3567 2.802 25.35C2.31114 25.3493 1.82073 25.3201 1.33325 25.2625C4.14649 27.0589 7.41666 28.0091 10.7545 28C22.0895 28 28.282 18.7688 28.282 10.7625C28.282 10.5 28.2751 10.2375 28.2626 9.98126C29.4646 9.1263 30.5044 8.06383 31.3333 6.84376Z" fill="#080510"/>
</g>
</svg>
