<svg width="48" height="48" viewBox="0 0 48 48" fill="none" xmlns="http://www.w3.org/2000/svg">
<path d="M36.7107 17.482C36.7311 17.7663 36.731 18.0506 36.731 18.3348C36.731 27.0049 30.1321 36.9948 18.0711 36.9948C14.3553 36.9948 10.9036 35.9186 8 34.0507C8.52794 34.1115 9.0355 34.1318 9.58376 34.1318C12.6497 34.1318 15.4721 33.0963 17.7259 31.3298C14.8427 31.2689 12.4264 29.3806 11.5939 26.7816C12 26.8424 12.4061 26.8831 12.8325 26.8831C13.4213 26.8831 14.0102 26.8018 14.5584 26.6598C11.5533 26.0506 9.29944 23.411 9.29944 20.2232V20.142C10.1725 20.6293 11.1878 20.9339 12.2639 20.9744C10.4974 19.7967 9.34007 17.7866 9.34007 15.5125C9.34007 14.2942 9.66488 13.1775 10.2334 12.2028C13.4619 16.1825 18.3147 18.7815 23.7563 19.0658C23.6548 18.5785 23.5939 18.0709 23.5939 17.5633C23.5939 13.949 26.5178 11.0049 30.1523 11.0049C32.0406 11.0049 33.7462 11.7968 34.9442 13.076C36.4264 12.7917 37.8477 12.2435 39.1066 11.4922C38.6192 13.0151 37.5837 14.2943 36.2234 15.1064C37.5432 14.9643 38.8224 14.5988 40 14.0912C39.1067 15.3907 37.9899 16.548 36.7107 17.482Z" fill="#1DA1F2"/>
</svg>
